<svg xmlns="http://www.w3.org/2000/svg" viewBox="0 0 400 300" width="406" height="306" class="illustration styles_illustrationTablet__1DWOa"><g id="_344_salesman_flatline" data-name="#344_salesman_flatline"><path d="M93.21,215.67a.5.5,0,0,1-.39-.82A244.61,244.61,0,0,1,112.3,194c14.77-14,26.82-21.15,35.82-21.39,9.4-.25,21.47,4.42,34.23,9.35,16.38,6.35,33.33,12.91,46.06,9.53,51.29-13.58,85.37-71.06,85.71-71.64a.51.51,0,0,1,.69-.18.51.51,0,0,1,.18.68c-.34.59-34.63,58.42-86.32,72.11-13,3.46-30.15-3.16-46.68-9.56-12.66-4.9-24.62-9.55-33.84-9.29-20.93.55-54.22,41.49-54.55,41.9A.51.51,0,0,1,93.21,215.67Z" fill="#d1d3d4"></path><path d="M313.37,221.25H86.63a.5.5,0,0,1-.5-.5V84.39a.5.5,0,1,1,1,0V220.25H313.37a.5.5,0,0,1,.5.5A.5.5,0,0,1,313.37,221.25Z" fill="#d1d3d4"></path><ellipse cx="218.24" cy="273.19" rx="58.19" ry="3.38" fill="#d1d3d4"></ellipse><polygon points="204.77 251.03 203.84 261.56 190.29 262.07 190.24 249.42 204.77 251.03" fill="#fff"></polygon><path d="M190.29,262.59a.49.49,0,0,1-.36-.15.51.51,0,0,1-.16-.37l-.05-12.65a.53.53,0,0,1,.18-.39.51.51,0,0,1,.4-.13l14.53,1.61a.51.51,0,0,1,.45.56l-.93,10.53a.51.51,0,0,1-.49.47l-13.55.52Zm.47-12.6,0,11.55,12.56-.48.85-9.58Z" fill="#231f20"></path><path d="M204,261.54s.54,10.13-.55,10.45-26.33,1.69-31.08.14c-3.55-1.16,17.95-10.06,17.95-10.06Z" fill="#231f20"></path><path d="M182.8,273.34c-4.76,0-8.93-.19-10.62-.74-.62-.2-.73-.61-.73-.83-.09-2.17,13-7.83,18.65-10.16l.17,0L204,261a.51.51,0,0,1,.52.48c.55,10.51-.54,10.84-.9,11C202.88,272.67,191.78,273.34,182.8,273.34Zm-10.32-1.69h0c4.56,1.49,28.82.19,30.71-.13.44-.75.49-5.34.3-9.47l-13.11.5C182,266,173.22,270.3,172.48,271.65Zm-.09,0Z" fill="#231f20"></path><polygon points="229.19 251.03 230.12 261.56 244.77 262.07 243.72 249.42 229.19 251.03" fill="#fff"></polygon><path d="M244.77,262.59h0l-14.65-.52a.51.51,0,0,1-.49-.47l-.94-10.53a.52.52,0,0,1,.46-.56l14.53-1.61a.51.51,0,0,1,.39.12.52.52,0,0,1,.18.35L245.29,262a.52.52,0,0,1-.15.4A.51.51,0,0,1,244.77,262.59Zm-14.17-1.53,13.61.47-1-11.54-13.5,1.49Z" fill="#231f20"></path><path d="M230,261.54s-.54,10.13.55,10.45,26.33,1.69,31.08.14c3.55-1.16-16.85-10.06-16.85-10.06Z" fill="#231f20"></path><path d="M251.15,273.34c-9,0-20.08-.67-20.76-.87-.36-.11-1.45-.44-.9-11A.51.51,0,0,1,230,261l14.78.53.18,0c5.32,2.32,17.67,7.95,17.56,10.14a.93.93,0,0,1-.75.85C260.09,273.15,255.92,273.34,251.15,273.34Zm-20.4-1.81c1.88.32,26.16,1.62,30.72.13l0,0c-.57-1.31-9.06-5.67-16.85-9.08l-14.2-.5C230.27,266.19,230.32,270.78,230.75,271.53Zm0,.05h0Z" fill="#231f20"></path><polygon points="207.16 252.46 215.24 175.57 227.58 252.46 246.25 252.46 241.84 142.39 186.6 139.11 186.78 252.46 207.16 252.46" fill="#231f20"></polygon><polygon points="185.06 72.35 158.07 97.5 167.94 119.17 194.45 102.92 185.06 72.35" fill="#3ac5c9"></polygon><path d="M239.26,139.73l6.65-22.53S243.51,82.71,234,70.47c-14.09-7.59-43-5.8-48.93,1.88s4.56,67.92,4.56,67.92Z" fill="#3ac5c9"></path><path d="M192.66,38.84c.16.11.32.22.49.32-2.41-1.49.85-8.34,1.84-9.8,1.76,2.2,4.69,3.12,7.49,3.44s5.66.14,8.42.68,5.57,2,6.75,4.56c-.11-.24,1.73-.1,1.9,0a3.91,3.91,0,0,1,1.95,2.11,9.34,9.34,0,0,1,.6,3.6,31.27,31.27,0,0,1-3.67,15,14.59,14.59,0,0,1-3.87,4.9c-3.91,3-8.61.58-12.4-1.56-8.93-5-11.17-16.21-12-25.67A10.32,10.32,0,0,0,192.66,38.84Z" fill="#fff"></path><path d="M210.41,65.55c-3.17,0-6.33-1.78-8.51-3-9.43-5.31-11.49-17.43-12.23-26.07a.52.52,0,0,1,.33-.53.51.51,0,0,1,.6.18,10.7,10.7,0,0,0,1.17,1.34c-.18-2.87,2.12-7.4,2.79-8.39a.54.54,0,0,1,.41-.23.56.56,0,0,1,.42.2c1.43,1.78,3.84,2.87,7.15,3.24,1.11.13,2.27.18,3.38.22A33.7,33.7,0,0,1,211,33c3.22.63,5.7,2.23,6.91,4.43a7.05,7.05,0,0,1,1.82.11A4.5,4.5,0,0,1,222,39.91a9.71,9.71,0,0,1,.64,3.8A31.68,31.68,0,0,1,218.89,59a15.09,15.09,0,0,1-4,5.07A7.19,7.19,0,0,1,210.41,65.55ZM190.85,38c.84,8.25,3.12,18.89,11.56,23.65,4.05,2.29,8.3,4.29,11.84,1.6A14,14,0,0,0,218,58.5a30.68,30.68,0,0,0,3.6-14.78,8.77,8.77,0,0,0-.56-3.4,3.42,3.42,0,0,0-1.64-1.83,8.24,8.24,0,0,0-1.39-.06.57.57,0,0,1-.13.08.51.51,0,0,1-.68-.25c-1.37-3-4.92-4-6.38-4.27a31.14,31.14,0,0,0-4.92-.45c-1.13,0-2.31-.1-3.46-.23-3.25-.37-5.72-1.4-7.35-3.08-.94,1.69-2.64,5.59-2.21,7.6a1.31,1.31,0,0,0,.56.89.52.52,0,0,1-.55.88l-.51-.34A10.8,10.8,0,0,1,190.85,38Z" fill="#231f20"></path><path d="M201.34,63.45l-.08,8.65s1.51,4.78,7.05,3.09a9,9,0,0,0,6.22-7.07l0-15.51s-3.38-3.1-2.69-12.22a46.42,46.42,0,0,1-16.73,2.48s-.63,11.5.31,15.81S201.34,63.45,201.34,63.45Z" fill="#fff"></path><path d="M206.07,76.07a5.7,5.7,0,0,1-5.3-3.81.44.44,0,0,1,0-.16l.07-8.21c-1.33-.26-5.06-1.3-5.89-5.1-.94-4.33-.34-15.47-.32-15.94a.5.5,0,0,1,.18-.36.52.52,0,0,1,.38-.13c8.19.55,16.43-2.42,16.51-2.45a.53.53,0,0,1,.49.07.54.54,0,0,1,.21.45c-.66,8.7,2.49,11.77,2.52,11.8a.49.49,0,0,1,.17.38l0,15.51a9.6,9.6,0,0,1-6.59,7.57A8.2,8.2,0,0,1,206.07,76.07Zm-4.29-4c.21.58,1.71,4.11,6.38,2.68A8.42,8.42,0,0,0,214,68.05l0-15.24c-.69-.75-3.15-4-2.74-11.68a47.52,47.52,0,0,1-15.68,2.29c-.11,2.28-.48,11.47.32,15.15.84,3.88,5.26,4.35,5.45,4.36a.52.52,0,0,1,.47.52Z" fill="#231f20"></path><path d="M211.24,52.52a3.75,3.75,0,0,1,1.13-2,6.64,6.64,0,0,1,1.91-1.11,2.72,2.72,0,0,1,1.17-.28,2.35,2.35,0,0,1,.82.24,2.9,2.9,0,0,1,1.44,1.34,3.46,3.46,0,0,1,.17,1.6,6.88,6.88,0,0,1-.34,1.74,4.51,4.51,0,0,1-2.31,2.54,4.56,4.56,0,0,1-3.44.13" fill="#fff"></path><path d="M213.35,57.48a5,5,0,0,1-1.74-.31.52.52,0,0,1-.3-.67.53.53,0,0,1,.66-.3,3.93,3.93,0,0,0,5.09-2.36,6.25,6.25,0,0,0,.3-1.6,2.89,2.89,0,0,0-.12-1.35,2.42,2.42,0,0,0-1.19-1.08,1.66,1.66,0,0,0-.63-.2,2.32,2.32,0,0,0-.94.25,6.12,6.12,0,0,0-1.76,1,3.16,3.16,0,0,0-1,1.75.51.51,0,0,1-.6.41.51.51,0,0,1-.41-.6A4.19,4.19,0,0,1,212,50.11a7,7,0,0,1,2.06-1.2,3.14,3.14,0,0,1,1.4-.33,2.74,2.74,0,0,1,1,.3,3.28,3.28,0,0,1,1.69,1.6,4,4,0,0,1,.21,1.84,7,7,0,0,1-.36,1.87A5,5,0,0,1,215.44,57,4.9,4.9,0,0,1,213.35,57.48Z" fill="#231f20"></path><path d="M201.3,67.6a9.37,9.37,0,0,0,5-2.47,4.2,4.2,0,0,0,1.44-4,8.05,8.05,0,0,1-6.41,2.32Z" fill="#231f20"></path><path d="M201.3,68.09A.5.5,0,0,1,201,68a.48.48,0,0,1-.15-.37l0-4.15a.53.53,0,0,1,.18-.37.49.49,0,0,1,.39-.12,7.61,7.61,0,0,0,6-2.16.53.53,0,0,1,.49-.14.52.52,0,0,1,.36.36,4.72,4.72,0,0,1-1.6,4.5,9.84,9.84,0,0,1-5.3,2.58Zm.53-4.09,0,3A9.61,9.61,0,0,0,206,64.76a3.85,3.85,0,0,0,1.34-2.58A8.47,8.47,0,0,1,201.83,64Z" fill="#231f20"></path><path d="M200.79,55.57a2.28,2.28,0,0,1-1.65-.54c-.82-.86.67-3.65,2.07-5.84a.5.5,0,1,1,.84.54c-1.29,2-2.3,4.21-2.16,4.65.32.31,1.47.2,2.14,0a.49.49,0,0,1,.62.34.5.5,0,0,1-.34.62A6.56,6.56,0,0,1,200.79,55.57Z" fill="#231f20"></path><path d="M202.74,58.69a4.94,4.94,0,0,1-1.26-.16.5.5,0,0,1-.34-.62.51.51,0,0,1,.62-.34,3.49,3.49,0,0,0,2.36-.2,2.53,2.53,0,0,0,1.14-1.66.51.51,0,0,1,.61-.36.52.52,0,0,1,.36.61,3.46,3.46,0,0,1-1.62,2.28A3.86,3.86,0,0,1,202.74,58.69Z" fill="#231f20"></path><path d="M207.88,48.3a.5.5,0,0,1-.37-.16,2.59,2.59,0,0,0-1.55-.82,1.56,1.56,0,0,0-1.18.47.51.51,0,0,1-.71,0,.5.5,0,0,1,0-.71,2.53,2.53,0,0,1,1.91-.73,3.64,3.64,0,0,1,2.24,1.15.51.51,0,0,1,0,.71A.54.54,0,0,1,207.88,48.3Z" fill="#231f20"></path><path d="M199.06,48.35a.51.51,0,0,1-.47-.33h0s-.21-.54-.61-.64-.91.24-1.26.55a.5.5,0,1,1-.66-.76,2.41,2.41,0,0,1,2.18-.76,2,2,0,0,1,1.29,1.27.5.5,0,0,1-.3.64A.51.51,0,0,1,199.06,48.35Z" fill="#231f20"></path><polygon points="206.66 76.21 209.83 78.38 207.82 81.77 212.23 104.95 206.6 110.85 202.23 102.35 205.38 81.23 203.81 78.02 206.66 76.21" fill="#fff"></polygon><path d="M191.29,68.4c-.22.08,1,15.86,15.94,33.8,0,0,2.45-.32,9.36-15.3s5.93-20.2,5.93-20.2a21.29,21.29,0,0,1,6.5,1,25,25,0,0,1,6.66,3.1S230,95.33,244.75,108l-2.92,34.42-55.23-3.28-2.19-30.92s2.36-2.6,3.51-15.72a100.52,100.52,0,0,0-.4-22.62Z" fill="#231f20"></path><rect x="133.74" y="63.37" width="47.87" height="57.72" transform="matrix(1, 0.04, -0.04, 1, 3.99, -6.51)" fill="#231f20"></rect><rect x="137.46" y="65.76" width="40.45" height="52.94" transform="translate(3.99 -6.51) rotate(2.4)" fill="#fff"></rect><path d="M176.78,120h0l-40.41-1.69a.48.48,0,0,1-.36-.16.54.54,0,0,1-.14-.38l2.22-52.89a.52.52,0,0,1,.53-.5L179,66.11a.53.53,0,0,1,.5.54l-2.22,52.9a.5.5,0,0,1-.16.36A.56.56,0,0,1,176.78,120Zm-39.88-2.7L176.28,119l2.17-51.87-39.37-1.64Z" fill="#231f20"></path><rect x="151.46" y="64.32" width="16.95" height="5.28" rx="1.66" transform="translate(2.94 -6.63) rotate(2.4)" fill="#fff"></rect><path d="M166.71,70.4h-.09L153,69.83a2.17,2.17,0,0,1-2.08-2.26l.08-2a2.19,2.19,0,0,1,.7-1.5,2.15,2.15,0,0,1,1.56-.58l13.63.57a2.23,2.23,0,0,1,1.51.7,2.19,2.19,0,0,1,.57,1.56l-.08,2A2.18,2.18,0,0,1,166.71,70.4Zm-.05-1a1.13,1.13,0,0,0,1.18-1.09l.09-2a1.19,1.19,0,0,0-.3-.82,1.14,1.14,0,0,0-.79-.36l-13.63-.57a1.14,1.14,0,0,0-.82.29,1.2,1.2,0,0,0-.37.8l-.08,2A1.15,1.15,0,0,0,153,68.8Z" fill="#231f20"></path><path d="M159.17,78.67h0L142.81,78a.5.5,0,0,1-.48-.52.48.48,0,0,1,.52-.48l16.34.68a.5.5,0,0,1,0,1Z" fill="#d1d3d4"></path><path d="M174.31,79.31h0l-3.84-.16a.5.5,0,0,1-.48-.52.48.48,0,0,1,.52-.48l3.84.16a.5.5,0,0,1,.48.52A.51.51,0,0,1,174.31,79.31Z" fill="#d1d3d4"></path><path d="M155.25,84.1h0l-12.65-.53a.5.5,0,0,1-.48-.52.47.47,0,0,1,.52-.48l12.65.53a.5.5,0,0,1,0,1Z" fill="#d1d3d4"></path><path d="M174.07,84.89h0l-5.48-.23a.52.52,0,0,1-.48-.52.5.5,0,0,1,.53-.48l5.47.23a.5.5,0,0,1,0,1Z" fill="#d1d3d4"></path><path d="M161.69,90h0l-19.33-.81a.52.52,0,0,1-.48-.52.48.48,0,0,1,.52-.48l19.33.81a.5.5,0,0,1,0,1Z" fill="#d1d3d4"></path><path d="M173.84,90.46h0L170,90.3a.5.5,0,1,1,.05-1l3.83.16a.51.51,0,0,1,.48.52A.5.5,0,0,1,173.84,90.46Z" fill="#d1d3d4"></path><path d="M151.49,95.12h0l-9.35-.4a.5.5,0,0,1-.48-.52.48.48,0,0,1,.52-.47l9.36.39a.5.5,0,0,1,.48.52A.51.51,0,0,1,151.49,95.12Z" fill="#d1d3d4"></path><path d="M173.61,96h0l-6.38-.27a.5.5,0,0,1-.48-.52.48.48,0,0,1,.52-.47l6.38.26a.5.5,0,0,1,0,1Z" fill="#d1d3d4"></path><path d="M157.34,101h0l-15.44-.65a.49.49,0,0,1-.48-.52.48.48,0,0,1,.52-.48l15.44.65a.5.5,0,0,1,.48.52A.51.51,0,0,1,157.34,101Z" fill="#d1d3d4"></path><path d="M173.37,101.62h0l-3.83-.16a.5.5,0,0,1-.48-.52.48.48,0,0,1,.52-.48l3.83.16a.5.5,0,0,1,0,1Z" fill="#d1d3d4"></path><path d="M153.62,106.38h0l-12-.5a.5.5,0,0,1-.48-.52.48.48,0,0,1,.52-.48l12,.5a.5.5,0,0,1,0,1Z" fill="#d1d3d4"></path><path d="M173.14,107.2h0l-6.38-.27a.5.5,0,1,1,0-1l6.37.27a.5.5,0,0,1,0,1Z" fill="#d1d3d4"></path><circle cx="169.03" cy="113.16" r="2.54" fill="#d1d3d4"></circle><path d="M163,113h0l-2.9-.12a.5.5,0,0,1-.48-.52.48.48,0,0,1,.52-.48l2.9.12a.5.5,0,0,1,0,1Z" fill="#d1d3d4"></path><path d="M244.75,108s2.63,23.67-1.13,26.88-53.49-3.07-53.49-3.07-12.82,1.35-16.33-.69-20.26-5.88-17.06-7.09,14.24-.45,17.22-.33c0,0-7.48-3.51-4.63-3.81s12.74,3.4,15.57,3.52,40.57-.6,40.57-.6l1.41-9.58" fill="#fff"></path><path d="M236.13,136.27c-14,0-41.83-3.45-46-4-1.07.11-13.05,1.28-16.58-.76a58.18,58.18,0,0,0-8.15-2.93c-7.39-2.32-9.54-3.16-9.57-4.22,0-.27.11-.64.73-.87,2.69-1,10.48-.71,15-.49-3.53-1.89-3.4-2.65-3.35-2.93s.44-.68,1.1-.75c1.7-.18,5.47.9,9.13,1.94a40.63,40.63,0,0,0,6.52,1.57c2.62.11,35.87-.51,40.09-.59l1.35-9.14a.52.52,0,1,1,1,.15L226,122.85a.51.51,0,0,1-.5.44c-1.54,0-37.78.73-40.6.61a42,42,0,0,1-6.76-1.62c-3.39-1-7.25-2.07-8.73-1.91h0a23.47,23.47,0,0,0,4.83,2.82.53.53,0,0,1,.29.59.52.52,0,0,1-.53.4l-1.46-.07c-3.81-.2-12.67-.65-15.47.33,1,.77,5.59,2.2,8.69,3.18a56.22,56.22,0,0,1,8.36,3c3.32,1.93,15.89.63,16,.61h.12c19.9,2.52,50.46,5.45,53.1,3.2,2.91-2.49,1.67-19.92.94-26.43a.52.52,0,0,1,1-.12c.27,2.45,2.55,24-1.3,27.34C243.1,136,240.19,136.27,236.13,136.27Z" fill="#231f20"></path><path d="M235.68,70.84S249.69,92.39,249,110l-22.63,6.23L222,105.53S219.49,81.7,235.68,70.84Z" fill="#3ac5c9"></path><path d="M127.67,96.76c.64-4.7,1.31-9.76,4.37-13.59.74-.92,3.29-3.76,4.6-2.65s-.43,2.42-1.19,3a13.28,13.28,0,0,0-3.5,4.28A23.27,23.27,0,0,1,136,84.66a3.4,3.4,0,0,1,1.2-.57,1.2,1.2,0,0,1,1.2.41,1.21,1.21,0,0,1,0,1.17,3.89,3.89,0,0,1-.75,1,25.22,25.22,0,0,0-3.6,4.82,8.27,8.27,0,0,1,3.75-2.88c.53-.2,1.22-.29,1.55.16s0,1.15-.38,1.63l-3.07,4c.43-.48,1.9-1.27,2.57-.79.87.63-.53,1.57-1,2a13.85,13.85,0,0,0-2.19,3.32,16,16,0,0,1-1.22,1.85C131.26,104.47,127.19,100.28,127.67,96.76Z" fill="#fff"></path><path d="M131.57,102.72a3.26,3.26,0,0,1-1.27-.27,5.73,5.73,0,0,1-3.14-5.76l.51.07-.51-.07.51.07-.5-.15c.62-4.61,1.33-9.84,4.46-13.76.39-.49,2.42-2.93,4.11-3.09a1.6,1.6,0,0,1,1.23.36,1.67,1.67,0,0,1,.67,1.32c0,1-1,1.86-1.74,2.41l-.13.1a14.45,14.45,0,0,0-1.08,1l1.05-.7a4,4,0,0,1,1.38-.65,1.57,1.57,0,0,1,1.78,2.31,4,4,0,0,1-.79,1c-.49.51-.94,1-1.38,1.57.31-.15.61-.29.93-.41a1.77,1.77,0,0,1,2.15.33c.3.41.47,1.13-.39,2.26L137.7,92.9a1.52,1.52,0,0,1,1.11.23,1.1,1.1,0,0,1,.49.85c0,.71-.68,1.31-1.2,1.75l-.25.23a9.34,9.34,0,0,0-1.67,2.43c-.14.26-.28.52-.43.77a17.37,17.37,0,0,1-1.26,1.9A3.7,3.7,0,0,1,131.57,102.72Zm4.36-21.94h-.09c-.92.09-2.41,1.47-3.4,2.71-2.95,3.7-3.61,8.56-4.25,13.26v.08a4.72,4.72,0,0,0,2.52,4.67,2.4,2.4,0,0,0,3-1.07,16.71,16.71,0,0,0,1.19-1.78l.42-.76a10.15,10.15,0,0,1,1.86-2.68,2.81,2.81,0,0,1,.3-.26c.2-.18.83-.72.83-.93-.39-.29-1.57.25-2,.67a.51.51,0,0,1-.71,0,.52.52,0,0,1-.08-.71l3.07-4c.35-.46.5-.85.38-1s-.59-.12-.95,0a7.77,7.77,0,0,0-3.52,2.7.52.52,0,0,1-.7.13.51.51,0,0,1-.17-.69,26,26,0,0,1,3.67-4.91,3.66,3.66,0,0,0,.66-.83.67.67,0,0,0,0-.66.67.67,0,0,0-.68-.19,2.81,2.81,0,0,0-1,.5,22.4,22.4,0,0,0-4,3.09.51.51,0,0,1-.83-.59,13.78,13.78,0,0,1,3.63-4.45l.14-.11c.47-.37,1.34-1.07,1.35-1.62,0-.06,0-.25-.3-.51A.56.56,0,0,0,135.93,80.78Z" fill="#231f20"></path><rect x="185.19" y="138.61" width="56.68" height="4.45" transform="translate(6.07 -8.8) rotate(2.4)" fill="#fff"></rect><path d="M241.76,144.76h0l-56.64-2.37a.53.53,0,0,1-.35-.17.47.47,0,0,1-.14-.37l.19-4.45a.52.52,0,0,1,.53-.49L242,139.28a.53.53,0,0,1,.36.17.5.5,0,0,1,.14.37l-.19,4.45A.52.52,0,0,1,241.76,144.76Zm-56.1-3.38,55.6,2.33.15-3.42L185.81,138Z" fill="#231f20"></path><rect x="205.54" y="138.85" width="13.74" height="5.81" transform="translate(6.11 -8.76) rotate(2.4)" fill="#fff"></rect><path d="M219.16,145.46h0l-13.73-.57a.53.53,0,0,1-.36-.17.55.55,0,0,1-.14-.37l.25-5.81a.53.53,0,0,1,.53-.49l13.73.57a.53.53,0,0,1,.36.17.5.5,0,0,1,.14.37l-.24,5.81A.52.52,0,0,1,219.16,145.46ZM206,143.88l12.7.53.2-4.78-12.7-.53Z" fill="#231f20"></path><path d="M199,52h-4.8a2.29,2.29,0,0,1-2.28-2.28V47a2.29,2.29,0,0,1,2.28-2.28H199A2.29,2.29,0,0,1,201.28,47v2.64A2.29,2.29,0,0,1,199,52Zm-4.8-6.2A1.28,1.28,0,0,0,192.92,47v2.64A1.28,1.28,0,0,0,194.2,51H199a1.29,1.29,0,0,0,1.28-1.28V47A1.29,1.29,0,0,0,199,45.76Z" fill="#231f20"></path><path d="M209.18,52h-4.8a2.29,2.29,0,0,1-2.28-2.28V47a2.29,2.29,0,0,1,2.28-2.28h4.8A2.29,2.29,0,0,1,211.46,47v2.64A2.29,2.29,0,0,1,209.18,52Zm-4.8-6.2A1.29,1.29,0,0,0,203.1,47v2.64A1.29,1.29,0,0,0,204.38,51h4.8a1.28,1.28,0,0,0,1.28-1.28V47a1.28,1.28,0,0,0-1.28-1.28Z" fill="#231f20"></path><path d="M202.6,46.77h-1.47a.5.5,0,0,1-.5-.5.5.5,0,0,1,.5-.5h1.47a.5.5,0,0,1,.5.5A.5.5,0,0,1,202.6,46.77Z" fill="#231f20"></path><path d="M135.55,126.66s-.49,6.23-7.62,7.74a9.63,9.63,0,0,1,8,6.68s.8-7.13,6.71-7.21C142.64,133.87,135.74,132.58,135.55,126.66Z" fill="#d1d3d4"></path><path d="M174,45.24a4.86,4.86,0,0,1-4.07,4.14A5.12,5.12,0,0,1,174.18,53s.43-3.81,3.59-3.85C177.77,49.1,174.08,48.41,174,45.24Z" fill="#d1d3d4"></path><path d="M127,51.53s-2.62,5.52-9.67,4.43a9.4,9.4,0,0,1,5,8.9s3.22-6.25,8.66-4.26C131,60.6,125.11,57,127,51.53Z" fill="#d1d3d4"></path><path d="M313.89,133.06h-.05a.5.5,0,0,1-.45-.55l1.32-12.77-12.29,5.81a.5.5,0,1,1-.43-.9l13.1-6.2a.5.5,0,0,1,.5,0,.49.49,0,0,1,.21.46l-1.41,13.65A.51.51,0,0,1,313.89,133.06Z" fill="#d1d3d4"></path><path d="M293.41,218.15a.5.5,0,0,1-.5-.5v-1.5a.5.5,0,0,1,.5-.5.5.5,0,0,1,.5.5v1.5A.51.51,0,0,1,293.41,218.15Z" fill="#d1d3d4"></path><path d="M293.41,213.6a.5.5,0,0,1-.5-.5v-3a.5.5,0,0,1,.5-.5.5.5,0,0,1,.5.5v3A.5.5,0,0,1,293.41,213.6Zm0-6.08a.5.5,0,0,1-.5-.5V204a.5.5,0,0,1,.5-.5.51.51,0,0,1,.5.5V207A.51.51,0,0,1,293.41,207.52Zm0-6.09a.5.5,0,0,1-.5-.5v-3a.5.5,0,0,1,.5-.5.5.5,0,0,1,.5.5v3A.5.5,0,0,1,293.41,201.43Zm0-6.08a.5.5,0,0,1-.5-.5v-3a.5.5,0,0,1,.5-.5.51.51,0,0,1,.5.5v3A.51.51,0,0,1,293.41,195.35Zm0-6.09a.5.5,0,0,1-.5-.5v-3a.5.5,0,0,1,.5-.5.5.5,0,0,1,.5.5v3A.5.5,0,0,1,293.41,189.26Zm0-6.09a.5.5,0,0,1-.5-.5v-3a.5.5,0,0,1,.5-.5.5.5,0,0,1,.5.5v3A.5.5,0,0,1,293.41,183.17Zm0-6.08a.5.5,0,0,1-.5-.5v-3.05a.5.5,0,0,1,.5-.5.51.51,0,0,1,.5.5v3.05A.51.51,0,0,1,293.41,177.09Zm0-6.09a.5.5,0,0,1-.5-.5v-3a.5.5,0,0,1,.5-.5.5.5,0,0,1,.5.5v3A.5.5,0,0,1,293.41,171Zm0-6.08a.5.5,0,0,1-.5-.5v-3a.5.5,0,0,1,.5-.5.51.51,0,0,1,.5.5v3A.51.51,0,0,1,293.41,164.92Z" fill="#d1d3d4"></path><path d="M293.41,158.83a.5.5,0,0,1-.5-.5v-1.5a.5.5,0,0,1,.5-.5.5.5,0,0,1,.5.5v1.5A.5.5,0,0,1,293.41,158.83Z" fill="#d1d3d4"></path><path d="M147.64,216.67a.5.5,0,0,1-.5-.5v-3a.5.5,0,1,1,1,0v3A.5.5,0,0,1,147.64,216.67Zm0-6a.5.5,0,0,1-.5-.5v-3a.5.5,0,1,1,1,0v3A.5.5,0,0,1,147.64,210.67Zm0-6a.5.5,0,0,1-.5-.5v-3a.5.5,0,1,1,1,0v3A.5.5,0,0,1,147.64,204.67Zm0-6a.5.5,0,0,1-.5-.5v-3a.5.5,0,1,1,1,0v3A.5.5,0,0,1,147.64,198.67Zm0-6a.5.5,0,0,1-.5-.5v-3a.5.5,0,1,1,1,0v3A.5.5,0,0,1,147.64,192.67Zm0-6a.5.5,0,0,1-.5-.5v-3a.5.5,0,1,1,1,0v3A.5.5,0,0,1,147.64,186.67Zm0-6a.5.5,0,0,1-.5-.5v-3a.5.5,0,1,1,1,0v3A.5.5,0,0,1,147.64,180.67Zm0-6a.46.46,0,0,1-.5-.45v-.09a.5.5,0,0,1,1,0A.53.53,0,0,1,147.64,174.62Z" fill="#d1d3d4"></path></g></svg>