<svg id="Layer_1" data-name="Layer 1" xmlns="http://www.w3.org/2000/svg" xmlns:xlink="http://www.w3.org/1999/xlink" viewBox="0 0 308.59 333.78" width="406" height="306" class="illustration styles_illustrationTablet__1DWOa"><defs><linearGradient id="linear-gradient" x1="161.37" y1="121.21" x2="158.15" y2="261.93" gradientUnits="userSpaceOnUse"><stop offset="0.01"></stop><stop offset="0.83" stop-opacity="0.07"></stop><stop offset="1" stop-opacity="0"></stop></linearGradient><linearGradient id="linear-gradient-2" x1="209.18" y1="205.62" x2="212.19" y2="96.5" xlink:href="#linear-gradient"></linearGradient><linearGradient id="linear-gradient-3" x1="209.96" y1="87.65" x2="216.79" y2="110.57" xlink:href="#linear-gradient"></linearGradient><linearGradient id="linear-gradient-4" x1="144.57" y1="100.67" x2="167.09" y2="102.58" gradientUnits="userSpaceOnUse"><stop offset="0.01"></stop><stop offset="0.55" stop-opacity="0.07"></stop><stop offset="1" stop-opacity="0"></stop></linearGradient><linearGradient id="linear-gradient-5" x1="177.33" y1="102.76" x2="163.25" y2="101.56" xlink:href="#linear-gradient"></linearGradient><linearGradient id="linear-gradient-6" x1="147.39" y1="108.11" x2="182.37" y2="172.17" xlink:href="#linear-gradient"></linearGradient><linearGradient id="linear-gradient-7" x1="239.71" y1="159.11" x2="255.59" y2="113.68" gradientUnits="userSpaceOnUse"><stop offset="0.01"></stop><stop offset="0.48" stop-opacity="0.07"></stop><stop offset="1" stop-opacity="0"></stop></linearGradient></defs><title>Sales</title><path d="M359,225.76c-1.4,13.11-3.8,26.94-13.35,37.13a42.46,42.46,0,0,1-3.51,3.32c-6.47,5.46-14.62,9.37-22.41,13.42C290.08,295,263,314.39,231.68,327.12s-69.1,18.09-99.9,4.45c-17-7.52-30.31-20.13-41.57-33.55a192.46,192.46,0,0,1-21.89-31.81,135.49,135.49,0,0,1-15.07-42.57c-4.44-27,1.35-55.85,19.3-78.19,9.91-12.33,23.1-22.35,33.85-34.12C128.62,87,140,55.65,165.26,33.69,195,7.79,277.9-12.18,301,31.05c11.41,21.39,2.27,47.21,11,69.39,9.67,24.56,32.67,43.19,42.44,67.77C361.72,186.52,361.1,206.47,359,225.76Z" transform="translate(-51.82 -5.78)" fill="#3ac5c9" opacity="0.25" style="isolation: isolate;"></path><polygon points="64.02 240.64 64.02 197.93 103.89 175.46 166.43 191.34 249.19 140.9 248.97 241.41 64.02 240.64" fill="#3ac5c9" opacity="0.25" style="isolation: isolate;"></polygon><polyline points="67.84 194.4 103.76 174.91 166.43 191.34 249.35 141.67" fill="none" fill="#3ac5c9" stroke-linecap="round" stroke-miterlimit="10" stroke-width="2.71"></polyline><path d="M107.94,248.21H307.67a1,1,0,0,0,0-2H110V135.6a1,1,0,0,0-2,0Z" transform="translate(-51.82 -5.78)" fill="#3ac5c9"></path><path d="M342.17,266.21c-6.47,5.46-14.62,9.37-22.41,13.42C290.08,295,263,314.39,231.68,327.12s-69.1,18.09-99.9,4.45c-17-7.52-30.31-20.13-41.57-33.55a192.46,192.46,0,0,1-21.89-31.81Z" transform="translate(-51.82 -5.78)" fill="#3ac5c9" opacity="0.43" style="isolation: isolate;"></path><path d="M285,274.64c0,6.34-35.1,11.46-78.4,11.46s-78.4-5.12-78.4-11.46c0-3.33,9.77-6.34,25.36-8.43H259.66C275.25,268.3,285,271.31,285,274.64Z" transform="translate(-51.82 -5.78)" fill="#3ac5c9" opacity="0.43" style="isolation: isolate;"></path><polygon points="142.74 160.1 139.19 258.94 150.71 260.02 158.62 186.44 164.38 260.69 177.25 259.35 175.1 160.71 142.74 160.1" fill="#3f3d56"></polygon><polygon points="142.74 160.1 139.19 258.94 150.71 260.02 158.62 186.44 164.38 260.69 177.25 259.35 175.1 160.71 142.74 160.1" fill="url(#linear-gradient)"></polygon><path d="M246.87,137.44a5.09,5.09,0,0,1-2,4.39c-1.61,1.19-4,.1-6.54-1.79h0a54.35,54.35,0,0,1-7.89-8h0c-.77-.95-1.24-1.57-1.24-1.57L227.32,107l17.07,23,.36.48A16.68,16.68,0,0,1,246.87,137.44Z" transform="translate(-51.82 -5.78)" fill="#3ac5c9"></path><path d="M197.24,106.26a5.32,5.32,0,0,0-2.3,1.24,5.19,5.19,0,0,0-1,2.94c-1.11,9.13-.33,18.37.45,27.54.72,8.58-1.41,16.9-.68,25.48a3.72,3.72,0,0,0,.47,1.83c.32.48,3.7,1,4.22,1.29,2.63,1.27,5.63,1.47,8.55,1.58,5,.18,10,.19,15.06.19a10,10,0,0,0,4.23-1.46c1.94-1.09,2.29-2.75,2.68-4.94a106.8,106.8,0,0,0,1.69-19.22c0-4.79-.34-9.61.32-14.36.44-3.2-1.36-20.36-3.58-21.38C218,102.74,206.37,103.11,197.24,106.26Z" transform="translate(-51.82 -5.78)" fill="#3ac5c9"></path><path d="M228.54,163.66a4.66,4.66,0,0,1-2.32,3.24,10.07,10.07,0,0,1-4.23,1.45c-5,0-10,0-15.06-.2-2.92-.1-5.92-.3-8.56-1.57-.51-.25-3.9-.82-4.21-1.3a3.66,3.66,0,0,1-.47-1.82c-.73-8.59,1.41-16.9.68-25.48l-.3-3.55c-.65-8-1.11-16-.15-24a6.16,6.16,0,0,1,.71-2.52s0,0,0,0a1.61,1.61,0,0,1,.24-.34l.06-.07c1.17,1.64,1.64,10,1.83,16.24a18.56,18.56,0,0,0-.11,4c.26,1.95,1.2,2,1.71,8,.73,8.58-3.75,14.14-3,22.72a18,18,0,0,0,1.81,3.62,52,52,0,0,0,5.33,4.22c2.63,1.26,9.24,1.19,12.16,1.31,5,.18,8.14-3.88,13.16-3.87A3.58,3.58,0,0,0,228.54,163.66Z" transform="translate(-51.82 -5.78)" fill="url(#linear-gradient-2)"></path><path d="M207.08,102a7.37,7.37,0,0,0-.69,3.23,4.45,4.45,0,0,0,1.51,2.6,8.19,8.19,0,0,0,9,1.26,4,4,0,0,0,2.08-2.11,5.81,5.81,0,0,0-.16-3,25.21,25.21,0,0,1-.57-5,8.07,8.07,0,0,0-.29-2.73,4.62,4.62,0,0,0-4.63-2.66c-1.41.07-4.58.91-5.3,2.27-.36.7-.1,2.42-.23,3.25A17,17,0,0,1,207.08,102Z" transform="translate(-51.82 -5.78)" fill="#f7ad7e"></path><path d="M208.05,95.74s-1,5.62,1.72,8,8,1.48,8.58-.8-.54-8.18-.54-8.18Z" transform="translate(-51.82 -5.78)" fill="url(#linear-gradient-3)"></path><path d="M222.8,93.33c-1.65,4.87-6.1,7.89-9.22,8.17s-6.51-2.55-7.88-6.1-1.55-17.15-1.55-17.15a5.68,5.68,0,0,1,.52-2.63c.43-1,1.23-4,2.3-4.82a27.59,27.59,0,0,1,15.05.32c1,.9,1.56,3.78,1.79,4.31a4.35,4.35,0,0,1,.21,1C224.44,79.71,224.26,89.08,222.8,93.33Z" transform="translate(-51.82 -5.78)" fill="#f7ad7e"></path><path d="M204,81.89a1.56,1.56,0,0,0-2.06.33,2.31,2.31,0,0,0-.22,1.28,7.35,7.35,0,0,0,.11,1.32,6.31,6.31,0,0,0,1.69,3.08,2.87,2.87,0,0,0,.69.57,1.09,1.09,0,0,0,.88.09,1.53,1.53,0,0,0,.75-1.25,6.64,6.64,0,0,0-.28-3.25A4.34,4.34,0,0,0,204,81.89Z" transform="translate(-51.82 -5.78)" fill="#f7ad7e"></path><path d="M224.63,81.71a1.56,1.56,0,0,1,2.06.33,2.33,2.33,0,0,1,.22,1.28,8.3,8.3,0,0,1-.11,1.32,6.26,6.26,0,0,1-1.69,3.08,2.92,2.92,0,0,1-.69.58,1.09,1.09,0,0,1-.88.08,1.5,1.5,0,0,1-.75-1.25,6.65,6.65,0,0,1,.28-3.25A4.34,4.34,0,0,1,224.63,81.71Z" transform="translate(-51.82 -5.78)" fill="#f7ad7e"></path><path d="M224.17,82.23c0-.22-.08-.44-.13-.66a20.83,20.83,0,0,0-1.15-3.39l-2.25-5.57-.36-.87a.14.14,0,0,0,0-.06.07.07,0,0,1,0,.08,1,1,0,0,1-.44.28,21.35,21.35,0,0,1-3.13.91,10,10,0,0,1-4.14-.3c-1.15-.33-2.33-1.31-3.56-1.26l-.18,0a2.75,2.75,0,0,0-2.59,2.28,33.39,33.39,0,0,1-1.93,8.81c-1.32-.89-1.46-2.66-1.47-4.19s0-3.18,0-4.77a6.43,6.43,0,0,1,.26-2.27,2.32,2.32,0,0,1,1.68-1.53c.64-.11,1.37.1,1.91-.25a2,2,0,0,0,.66-1.46,6.16,6.16,0,0,1,1.2-3.09c1.51-1.77,4.39-1.89,6.67-1.14s4.24,2.15,6.47,3c1.51.58,3.25,1,4.22,2.23a5.08,5.08,0,0,1,.86,2.25A14.37,14.37,0,0,1,224.17,82.23Z" transform="translate(-51.82 -5.78)" fill="#3f3d56"></path><path d="M196.82,125.12a15.92,15.92,0,0,1-2.75,9.31c-.12.19-.25.37-.38.55-2.68,3.59-6.38,8.64-8.45,11.81a7.71,7.71,0,0,1-9.11,3.21c-6.7-4.81.54-15.27,1.07-17.14s15.12-21.77,17.43-24.94c0,0,0,0,0,0s.2-.27.24-.34l.06-.07c1.17,1.64,1.64,10,1.83,16.24C196.8,124.22,196.81,124.68,196.82,125.12Z" transform="translate(-51.82 -5.78)" fill="#3ac5c9"></path><path d="M273.45,124h0c-.54.46-17.87,15.38-25.15,18.09-5,1.84-8.46.49-9.95-2h0a6.25,6.25,0,0,1-.75-4.2,4.83,4.83,0,0,1,.17-.68c.95-3.12,4.8-4.64,6.64-5.19.6-.19,1-.27,1-.27l22.5-12.59Z" transform="translate(-51.82 -5.78)" fill="#3ac5c9"></path><polygon points="155.26 96.17 161.08 104.37 154.7 106.93 153.39 98.29 155.26 96.17" fill="#3ac5c9"></polygon><polygon points="166.93 96.65 161.08 104.37 166.96 107.1 168.47 98.99 166.93 96.65" fill="#3ac5c9"></polygon><polygon points="155.26 96.17 161.08 104.37 154.7 106.93 153.39 98.29 155.26 96.17" fill="url(#linear-gradient-4)"></polygon><polygon points="166.93 96.65 161.08 104.37 166.96 107.1 168.47 98.99 166.93 96.65" fill="url(#linear-gradient-5)"></polygon><path d="M176.22,150.26l26.7-.27.94-9.55-25.48-2S170.56,145.08,176.22,150.26Z" transform="translate(-51.82 -5.78)" fill="#3ac5c9"></path><path d="M281.44,118.53c2.08-1.23,4.57-2,6-3.91a1.36,1.36,0,0,0,.27-.52c.1-.59-.52-1-1.07-1.25a14.41,14.41,0,0,0-4.38-.72,26.84,26.84,0,0,0-6.4.24c-3.59.68-7.68,3.19-7.47,7.33.2,3.87,4.11,4.3,7,2.93C277.61,121.58,279.35,119.77,281.44,118.53Z" transform="translate(-51.82 -5.78)" fill="#f7ad7e"></path><polygon points="157.95 105.63 159.02 108.31 156.88 153.74 159.56 161.51 163.84 153.47 161.3 109.25 162.77 105.16 161.08 104.37 157.95 105.63" fill="url(#linear-gradient-6)"></polygon><path d="M273.45,124h0c-.54.46-17.87,15.38-25.15,18.09-5,1.84-8.46.49-9.95-2h0a54.35,54.35,0,0,1-7.89-8h0l-.6-6a96,96,0,0,0,7.91,9.16c2.14,2.11,4.23,3.74,5.56,3.7a11.07,11.07,0,0,0,3.56-1.41c7.88-4.13,24.59-15.88,24.59-15.88Z" transform="translate(-51.82 -5.78)" fill="url(#linear-gradient-7)"></path><path d="M183.88,268.38a3,3,0,0,0-1.4,1.52,2.34,2.34,0,0,0,.92,2.39,4.84,4.84,0,0,0,2.41.8c4.59.6,9.2,0,13.75-.66a3.45,3.45,0,0,0,1.75-.59,3.24,3.24,0,0,0,.86-1.37,12.45,12.45,0,0,0,.82-5.36,3.25,3.25,0,0,0-1.19-2.66,2.85,2.85,0,0,0-1.22-.3c-2.64-.21-5.85-.34-8.34.72C189.33,264.13,186.55,266.6,183.88,268.38Z" transform="translate(-51.82 -5.78)" fill="#3f3d56"></path><path d="M235.45,268.38a3,3,0,0,1,1.4,1.52,2.34,2.34,0,0,1-.92,2.39,4.84,4.84,0,0,1-2.41.8c-4.59.6-9.2,0-13.76-.66a3.45,3.45,0,0,1-1.74-.59,3.24,3.24,0,0,1-.86-1.37,12.3,12.3,0,0,1-.82-5.36,3.25,3.25,0,0,1,1.19-2.66,2.84,2.84,0,0,1,1.21-.3c2.65-.21,5.86-.34,8.34.72C230,264.13,232.77,266.6,235.45,268.38Z" transform="translate(-51.82 -5.78)" fill="#3f3d56"></path><path d="M217.15,144.61a4.45,4.45,0,0,0,1.6-1.31,1.59,1.59,0,0,0-.05-1.93,2.35,2.35,0,0,0-1.75-.47h-3.72a6.11,6.11,0,0,1-2.26-.28,6.84,6.84,0,0,0-1.94-.77c-1.42-.06-2.19,1.66-3.44,2.37a5.51,5.51,0,0,0-1.38.79c-.87.93-.39,2.81.35,3.69a3.17,3.17,0,0,0,2.64.88A19.88,19.88,0,0,0,217.15,144.61Z" transform="translate(-51.82 -5.78)" fill="#f7ad7e"></path><circle cx="103.89" cy="175.46" r="3.27" fill="#fff" fill="#3ac5c9" stroke-linecap="round" stroke-miterlimit="10" stroke-width="1.59"></circle><circle cx="249.19" cy="140.9" r="3.27" fill="#fff" fill="#3ac5c9" stroke-linecap="round" stroke-miterlimit="10" stroke-width="1.59"></circle><circle cx="66.94" cy="194.66" r="3.27" fill="#fff" fill="#3ac5c9" stroke-linecap="round" stroke-miterlimit="10" stroke-width="1.59"></circle></svg>