<svg xmlns="http://www.w3.org/2000/svg" xmlns:xlink="http://www.w3.org/1999/xlink" viewBox="0 0 400 300" width="406" height="306" class="illustration styles_illustrationTablet__1DWOa"><defs><linearGradient id="linear-gradient" x1="202.21" y1="157.43" x2="166.67" y2="207.38" gradientUnits="userSpaceOnUse"><stop offset="0" stop-color="#060094"></stop><stop offset="1" stop-color="#fff"></stop></linearGradient><linearGradient id="linear-gradient-2" x1="251.19" y1="237.52" x2="221.18" y2="262.37" xlink:href="#linear-gradient"></linearGradient><linearGradient id="linear-gradient-3" x1="355.55" y1="173.84" x2="310.53" y2="208.23" xlink:href="#linear-gradient"></linearGradient><linearGradient id="linear-gradient-4" x1="88.4" y1="168.55" x2="60.25" y2="191.85" xlink:href="#linear-gradient"></linearGradient></defs><title>PP</title><g style="isolation: isolate;"><g id="Layer_2" data-name="Layer 2"><path d="M196.24,288.6,23.74,186.65c-5.49-3.08-10.2-8.15-4.85-11.46L192,75.41c2.6-1.61,6.54-2.66,9.18-1.13L382.28,179.37c5.49,3.19,6.48,12.1,1,15.29L219,288.44A22.94,22.94,0,0,1,196.24,288.6Z" fill="#cb9bea"></path><path d="M150.3,174.48l-23.84,14.13s24.29,42.91,42.5,50.56l46.43-25-26.71-40.87Z" fill="url(#linear-gradient)" style="mix-blend-mode: multiply;"></path><path d="M239.47,236.48c-8.76,5-26.57,12.69-35.25,17.77a88,88,0,0,0,25.24,16l32.74-19.67Z" fill="url(#linear-gradient-2)" style="mix-blend-mode: multiply;"></path><path d="M303.91,222.33l41.74-23.67-22.33-10.08-35.67,19.87A198.72,198.72,0,0,0,303.91,222.33Z" fill="url(#linear-gradient-3)" style="mix-blend-mode: multiply;"></path><path d="M323.23,170.51s-4.49,30.66,14.82,30.76c18.54.1,13.76-31.13,13.76-31.13S338.33,158.41,323.23,170.51Z" fill="#3ac5c9"></path><path d="M323.23,170.51s-4.49,30.66,14.82,30.76c18.54.1,13.76-31.13,13.76-31.13S338.33,158.41,323.23,170.51Z" opacity="0.15"></path><ellipse cx="337.47" cy="170.51" rx="14.27" ry="5.89" fill="#3ac5c9"></ellipse><ellipse cx="337.47" cy="170.51" rx="14.27" ry="5.89" opacity="0.7"></ellipse><path d="M315,125.74s-9.94-2.39-6.13-10.66C308.89,115.08,315.73,116.43,315,125.74Z" fill="#938f05"></path><path d="M321.07,134.08s-1.38-7.07,4.15-9.92C325.21,124.16,329.65,131.57,321.07,134.08Z" fill="#938f05"></path><path d="M327.26,144.93s-1.65-8.46,5-11.87C332.22,133.05,337.53,141.92,327.26,144.93Z" fill="#938f05"></path><path d="M332.07,156.74s-1.65-8.46,5-11.87C337,144.86,342.34,153.72,332.07,156.74Z" fill="#938f05"></path><path d="M320.46,134.28s-3.51-6.29-9.57-4.91C310.89,129.37,312.28,137.89,320.46,134.28Z" fill="#938f05"></path><path d="M326.75,145.19s-4.49-7.36-11.67-5.42C315.08,139.77,317.13,149.89,326.75,145.19Z" fill="#938f05"></path><path d="M331.52,156.84s-5.27-6.82-12.2-4.1C319.32,152.74,322.48,162.57,331.52,156.84Z" fill="#938f05"></path><path d="M335.23,176.47h.13a6.88,6.88,0,0,1,1.39.11.69.69,0,0,0,0-.14,102,102,0,0,0-21.44-51.76c-.62-.78-1.71.32-1.1,1.1a100.08,100.08,0,0,1,21,50.66Z" fill="#42352f"></path><path d="M358.77,139.24s8.53-2,5.26-9.15C364,130.1,358.15,131.26,358.77,139.24Z" fill="#938f05"></path><path d="M353.58,146.4s1.18-6.06-3.56-8.51C350,137.89,346.22,144.24,353.58,146.4Z" fill="#938f05"></path><path d="M348.26,155.7s1.41-7.26-4.25-10.19C344,145.52,339.45,153.12,348.26,155.7Z" fill="#938f05"></path><path d="M344.14,165.83s1.41-7.26-4.25-10.19C339.89,155.65,335.33,163.25,344.14,165.83Z" fill="#938f05"></path><path d="M354.1,146.57s3-5.4,8.21-4.21C362.3,142.36,361.12,149.67,354.1,146.57Z" fill="#938f05"></path><path d="M348.71,155.93s3.85-6.31,10-4.65C358.72,151.28,357,160,348.71,155.93Z" fill="#938f05"></path><path d="M344.61,165.92s4.52-5.85,10.46-3.52C355.08,162.4,352.37,170.84,344.61,165.92Z" fill="#938f05"></path><path d="M358.5,138.34a87.42,87.42,0,0,0-17.41,38c.45-.07.92-.14,1.38-.18a85.85,85.85,0,0,1,17-36.89C360,138.62,359,137.67,358.5,138.34Z" fill="#42352f"></path><path d="M66.47,168.59,42.63,182.72s9.77,11.06,28,18.72l29.54-18.91" fill="url(#linear-gradient-4)" style="mix-blend-mode: multiply;"></path><ellipse cx="84.33" cy="175.07" rx="20.31" ry="11.9" fill="#ff912e"></ellipse><polygon points="64.02 175.07 64.02 171.64 66.23 174.38 64.02 175.07" fill="#e0944f"></polygon><polygon points="104.65 171.64 104.65 175.07 102.07 175.07 103.96 172.32 104.65 171.64" fill="#e0944f"></polygon><ellipse cx="84.33" cy="171.64" rx="20.31" ry="11.9" fill="#ffb92c"></ellipse><path d="M94.63,170a1.59,1.59,0,0,1,.16.9l-.08.32-3.71,0a1.68,1.68,0,0,0,.07-.32,1.39,1.39,0,0,0-.22-.68,2,2,0,0,0-.9-.82,4.06,4.06,0,0,0-1.74-.46,3.76,3.76,0,0,0-1.66.25q-.78.33-.6.87a3.21,3.21,0,0,0,.79,1.16,14.12,14.12,0,0,1,1.12,1.29,1.35,1.35,0,0,1,.2,1.43,3.19,3.19,0,0,1-1.8,1.4,10.67,10.67,0,0,1-3.93.82,12.57,12.57,0,0,1-4.3-.61l-2.13.92-2.5-1.22,2.07-.89a4.68,4.68,0,0,1-1-.89,2.64,2.64,0,0,1-.49-.83,2.72,2.72,0,0,1-.13-.67,1.45,1.45,0,0,1,0-.47l.07-.18H77.7a3,3,0,0,0-.09.38,1.58,1.58,0,0,0,.3.84,2.78,2.78,0,0,0,1.23,1,5.27,5.27,0,0,0,2.15.56,4.49,4.49,0,0,0,2-.32q.77-.33.58-.87a3.2,3.2,0,0,0-.82-1.16,11.87,11.87,0,0,1-1.13-1.29,1.33,1.33,0,0,1-.16-1.44,3.46,3.46,0,0,1,1.89-1.43A10.2,10.2,0,0,1,87.4,167a10.89,10.89,0,0,1,4,.63l2.13-.91L95.88,168l-2.13.92A3,3,0,0,1,94.63,170Z" fill="#ea8b24"></path><ellipse cx="84.37" cy="171.78" rx="17.05" ry="9.99" fill="none" stroke="#f7931e" stroke-miterlimit="10" stroke-width="6"></ellipse><ellipse cx="84.33" cy="168.52" rx="20.31" ry="11.9" fill="#ff912e"></ellipse><polygon points="64.02 168.52 64.02 165.08 66.23 167.83 64.02 168.52" fill="#e0944f"></polygon><polygon points="104.65 165.08 104.65 168.52 102.07 168.52 103.96 165.76 104.65 165.08" fill="#e0944f"></polygon><ellipse cx="84.33" cy="165.08" rx="20.31" ry="11.9" fill="#ffb92c"></ellipse><path d="M94.63,163.49a1.59,1.59,0,0,1,.16.9l-.08.32-3.71,0a1.68,1.68,0,0,0,.07-.32,1.39,1.39,0,0,0-.22-.68,2,2,0,0,0-.9-.82,4.06,4.06,0,0,0-1.74-.46,3.76,3.76,0,0,0-1.66.25q-.78.33-.6.87a3.21,3.21,0,0,0,.79,1.16A14.12,14.12,0,0,1,87.88,166a1.35,1.35,0,0,1,.2,1.43,3.19,3.19,0,0,1-1.8,1.4,10.67,10.67,0,0,1-3.93.82,12.57,12.57,0,0,1-4.3-.61l-2.13.92-2.5-1.22,2.07-.89a4.68,4.68,0,0,1-1-.89,2.64,2.64,0,0,1-.49-.83,2.72,2.72,0,0,1-.13-.67,1.45,1.45,0,0,1,0-.47l.07-.18H77.7a3,3,0,0,0-.09.38,1.58,1.58,0,0,0,.3.84,2.78,2.78,0,0,0,1.23,1,5.27,5.27,0,0,0,2.15.56,4.49,4.49,0,0,0,2-.32q.77-.33.58-.87a3.2,3.2,0,0,0-.82-1.16A11.87,11.87,0,0,1,81.9,164a1.33,1.33,0,0,1-.16-1.44,3.46,3.46,0,0,1,1.89-1.43,10.2,10.2,0,0,1,3.77-.74,10.89,10.89,0,0,1,4,.63l2.13-.91,2.33,1.27-2.13.92A3,3,0,0,1,94.63,163.49Z" fill="#ea8b24"></path><ellipse cx="84.37" cy="165.22" rx="17.05" ry="9.99" fill="none" stroke="#f7931e" stroke-miterlimit="10" stroke-width="6"></ellipse><ellipse cx="84.33" cy="161.94" rx="20.31" ry="11.9" fill="#ff912e"></ellipse><polygon points="64.02 161.94 64.02 158.5 66.23 161.25 64.02 161.94" fill="#e0944f"></polygon><polygon points="104.65 158.5 104.65 161.94 102.07 161.94 103.96 159.18 104.65 158.5" fill="#e0944f"></polygon><ellipse cx="84.33" cy="158.5" rx="20.31" ry="11.9" fill="#ffb92c"></ellipse><path d="M94.63,156.91a1.59,1.59,0,0,1,.16.9l-.08.32-3.71,0a1.68,1.68,0,0,0,.07-.32,1.39,1.39,0,0,0-.22-.68,2,2,0,0,0-.9-.82,4.06,4.06,0,0,0-1.74-.46,3.76,3.76,0,0,0-1.66.25q-.78.33-.6.87a3.21,3.21,0,0,0,.79,1.16,14.12,14.12,0,0,1,1.12,1.29,1.35,1.35,0,0,1,.2,1.43,3.19,3.19,0,0,1-1.8,1.4,10.67,10.67,0,0,1-3.93.82,12.57,12.57,0,0,1-4.3-.61l-2.13.92-2.5-1.22,2.07-.89a4.68,4.68,0,0,1-1-.89,2.64,2.64,0,0,1-.49-.83,2.72,2.72,0,0,1-.13-.67,1.45,1.45,0,0,1,0-.47l.07-.18H77.7a3,3,0,0,0-.09.38,1.58,1.58,0,0,0,.3.84,2.78,2.78,0,0,0,1.23,1,5.27,5.27,0,0,0,2.15.56,4.49,4.49,0,0,0,2-.32q.77-.33.58-.87a3.2,3.2,0,0,0-.82-1.16,11.87,11.87,0,0,1-1.13-1.29,1.33,1.33,0,0,1-.16-1.44,3.46,3.46,0,0,1,1.89-1.43,10.2,10.2,0,0,1,3.77-.74,10.89,10.89,0,0,1,4,.63l2.13-.91,2.33,1.27-2.13.92A3,3,0,0,1,94.63,156.91Z" fill="#ea8b24"></path><ellipse cx="84.37" cy="158.64" rx="17.05" ry="9.99" fill="none" stroke="#f7931e" stroke-miterlimit="10" stroke-width="6"></ellipse><ellipse cx="84.33" cy="157.07" rx="20.31" ry="11.9" fill="#ff912e"></ellipse><polygon points="64.02 157.07 64.02 153.63 66.23 156.38 64.02 157.07" fill="#e0944f"></polygon><polygon points="104.65 153.63 104.65 157.07 102.07 157.07 103.96 154.31 104.65 153.63" fill="#e0944f"></polygon><ellipse cx="84.33" cy="153.63" rx="20.31" ry="11.9" fill="#ffb92c"></ellipse><path d="M94.63,152a1.59,1.59,0,0,1,.16.9l-.08.32-3.71,0a1.68,1.68,0,0,0,.07-.32,1.39,1.39,0,0,0-.22-.68,2,2,0,0,0-.9-.82,4.06,4.06,0,0,0-1.74-.46,3.76,3.76,0,0,0-1.66.25q-.78.33-.6.87a3.21,3.21,0,0,0,.79,1.16,14.12,14.12,0,0,1,1.12,1.29,1.35,1.35,0,0,1,.2,1.43,3.19,3.19,0,0,1-1.8,1.4,10.67,10.67,0,0,1-3.93.82,12.57,12.57,0,0,1-4.3-.61l-2.13.92-2.5-1.22,2.07-.89a4.68,4.68,0,0,1-1-.89,2.64,2.64,0,0,1-.49-.83,2.72,2.72,0,0,1-.13-.67,1.45,1.45,0,0,1,0-.47l.07-.18H77.7a3,3,0,0,0-.09.38,1.58,1.58,0,0,0,.3.84,2.78,2.78,0,0,0,1.23,1,5.27,5.27,0,0,0,2.15.56,4.49,4.49,0,0,0,2-.32q.77-.33.58-.87a3.2,3.2,0,0,0-.82-1.16,11.87,11.87,0,0,1-1.13-1.29,1.33,1.33,0,0,1-.16-1.44,3.46,3.46,0,0,1,1.89-1.43A10.2,10.2,0,0,1,87.4,149a10.89,10.89,0,0,1,4,.63l2.13-.91L95.88,150l-2.13.92A3,3,0,0,1,94.63,152Z" fill="#ea8b24"></path><ellipse cx="84.37" cy="153.78" rx="17.05" ry="9.99" fill="none" stroke="#f7931e" stroke-miterlimit="10" stroke-width="6"></ellipse><ellipse cx="87.63" cy="150.49" rx="20.31" ry="11.9" fill="#ff912e"></ellipse><polygon points="67.31 150.49 67.31 147.05 69.53 149.8 67.31 150.49" fill="#e0944f"></polygon><polygon points="107.94 147.05 107.94 150.49 105.36 150.49 107.25 147.73 107.94 147.05" fill="#e0944f"></polygon><ellipse cx="87.63" cy="147.05" rx="20.31" ry="11.9" fill="#ffb92c"></ellipse><path d="M97.93,145.46a1.59,1.59,0,0,1,.16.9l-.08.32-3.71,0a1.68,1.68,0,0,0,.07-.32,1.39,1.39,0,0,0-.22-.68,2,2,0,0,0-.9-.82,4.06,4.06,0,0,0-1.74-.46,3.76,3.76,0,0,0-1.66.25q-.78.33-.6.87a3.21,3.21,0,0,0,.79,1.16A14.12,14.12,0,0,1,91.17,148a1.35,1.35,0,0,1,.2,1.43,3.19,3.19,0,0,1-1.8,1.4,10.67,10.67,0,0,1-3.93.82,12.57,12.57,0,0,1-4.3-.61l-2.13.92-2.5-1.22,2.07-.89a4.68,4.68,0,0,1-1-.89,2.64,2.64,0,0,1-.49-.83,2.72,2.72,0,0,1-.13-.67,1.45,1.45,0,0,1,0-.47l.07-.18H81a3,3,0,0,0-.09.38,1.58,1.58,0,0,0,.3.84,2.78,2.78,0,0,0,1.23,1,5.27,5.27,0,0,0,2.15.56,4.49,4.49,0,0,0,2-.32q.77-.33.58-.87a3.2,3.2,0,0,0-.82-1.16A11.87,11.87,0,0,1,85.2,146a1.33,1.33,0,0,1-.16-1.44,3.46,3.46,0,0,1,1.89-1.43,10.2,10.2,0,0,1,3.77-.74,10.89,10.89,0,0,1,4,.63l2.13-.91,2.33,1.27-2.13.92A3,3,0,0,1,97.93,145.46Z" fill="#ea8b24"></path><ellipse cx="87.66" cy="147.2" rx="17.05" ry="9.99" fill="none" stroke="#f7931e" stroke-miterlimit="10" stroke-width="3"></ellipse><ellipse cx="94.82" cy="143.45" rx="20.31" ry="11.9" fill="#ff912e"></ellipse><polygon points="74.51 143.45 74.51 140.01 76.72 142.76 74.51 143.45" fill="#e0944f"></polygon><polygon points="115.14 140.01 115.14 143.45 112.56 143.45 114.45 140.69 115.14 140.01" fill="#e0944f"></polygon><ellipse cx="94.82" cy="140.01" rx="20.31" ry="11.9" fill="#ffb92c"></ellipse><path d="M105.13,138.42a1.59,1.59,0,0,1,.16.9l-.08.32-3.71,0a1.68,1.68,0,0,0,.07-.32,1.39,1.39,0,0,0-.22-.68,2,2,0,0,0-.9-.82,4.06,4.06,0,0,0-1.74-.46,3.76,3.76,0,0,0-1.66.25q-.78.33-.6.87a3.21,3.21,0,0,0,.79,1.16A14.12,14.12,0,0,1,98.37,141a1.35,1.35,0,0,1,.2,1.43,3.19,3.19,0,0,1-1.8,1.4,10.67,10.67,0,0,1-3.93.82,12.57,12.57,0,0,1-4.3-.61l-2.13.92-2.5-1.22,2.07-.89a4.68,4.68,0,0,1-1-.89,2.64,2.64,0,0,1-.49-.83,2.72,2.72,0,0,1-.13-.67,1.45,1.45,0,0,1,0-.47l.07-.18h3.71a3,3,0,0,0-.09.38,1.58,1.58,0,0,0,.3.84,2.78,2.78,0,0,0,1.23,1,5.27,5.27,0,0,0,2.15.56,4.49,4.49,0,0,0,2-.32q.77-.33.58-.87a3.2,3.2,0,0,0-.82-1.16A11.87,11.87,0,0,1,92.4,139a1.33,1.33,0,0,1-.16-1.44,3.46,3.46,0,0,1,1.89-1.43,10.2,10.2,0,0,1,3.77-.74,10.89,10.89,0,0,1,4,.63l2.13-.91,2.33,1.27-2.13.92A3,3,0,0,1,105.13,138.42Z" fill="#ea8b24"></path><ellipse cx="94.86" cy="140.16" rx="17.05" ry="9.99" fill="none" stroke="#f7931e" stroke-miterlimit="10" stroke-width="2"></ellipse><ellipse cx="84.97" cy="133.44" rx="20.31" ry="11.9" fill="#ff912e"></ellipse><polygon points="64.65 133.44 64.65 130 66.86 132.75 64.65 133.44" fill="#e0944f"></polygon><polygon points="105.28 130 105.28 133.44 102.7 133.44 104.59 130.68 105.28 130" fill="#e0944f"></polygon><ellipse cx="84.97" cy="130" rx="20.31" ry="11.9" fill="#ffb92c"></ellipse><path d="M95.27,128.41a1.59,1.59,0,0,1,.16.9l-.08.32-3.71,0a1.68,1.68,0,0,0,.07-.32,1.39,1.39,0,0,0-.22-.68,2,2,0,0,0-.9-.82,4.06,4.06,0,0,0-1.74-.46,3.76,3.76,0,0,0-1.66.25q-.78.33-.6.87a3.21,3.21,0,0,0,.79,1.16A14.12,14.12,0,0,1,88.51,131a1.35,1.35,0,0,1,.2,1.43,3.19,3.19,0,0,1-1.8,1.4,10.67,10.67,0,0,1-3.93.82,12.57,12.57,0,0,1-4.3-.61l-2.13.92-2.5-1.22,2.07-.89a4.68,4.68,0,0,1-1-.89,2.64,2.64,0,0,1-.49-.83,2.72,2.72,0,0,1-.13-.67,1.45,1.45,0,0,1,0-.47l.07-.18h3.71a3,3,0,0,0-.09.38,1.58,1.58,0,0,0,.3.84,2.78,2.78,0,0,0,1.23,1,5.27,5.27,0,0,0,2.15.56,4.49,4.49,0,0,0,2-.32q.77-.33.58-.87a3.2,3.2,0,0,0-.82-1.16A11.87,11.87,0,0,1,82.54,129a1.33,1.33,0,0,1-.16-1.44,3.46,3.46,0,0,1,1.89-1.43,10.2,10.2,0,0,1,3.77-.74,10.89,10.89,0,0,1,4,.63l2.13-.91,2.33,1.27-2.13.92A3,3,0,0,1,95.27,128.41Z" fill="#ea8b24"></path><ellipse cx="85" cy="130.14" rx="17.05" ry="9.99" fill="none" stroke="#f7931e" stroke-miterlimit="10" stroke-width="2"></ellipse><path d="M178.8,78.24,144,174.94c-1.31,3.63,4.34,5.67,5.65,2l34.76-96.7C185.76,76.64,180.11,74.6,178.8,78.24Z" fill="#56403d"></path><path d="M200.95,112.3l8.45,102.41c.32,3.85,6.3,3.36,6-.49l-8.45-102.41C206.61,108,200.63,108.45,200.95,112.3Z" fill="#56403d"></path><path d="M184.92,73.73l1.5,102.75c.06,3.86,6.06,3.78,6-.09l-1.5-102.75C190.86,69.78,184.86,69.87,184.92,73.73Z" fill="#56403d"></path><path d="M214.58,147l-58.49-32.11a2.55,2.55,0,0,1-1.32-2.23V10.46a2.55,2.55,0,0,1,3.82-2.21L217.08,42a2.55,2.55,0,0,1,1.27,2.21V144.8A2.55,2.55,0,0,1,214.58,147Z" fill="#3ac5c9"></path><path d="M206,78.8v22.42c0,6.51-10.12,6.52-10.12,0V78.8C195.87,72.29,206,72.28,206,78.8Z" fill="#56403d"></path><path d="M192.24,55.8V92c0,6.51-10.12,6.52-10.12,0V55.8C182.12,49.29,192.24,49.28,192.24,55.8Z" fill="#484887"></path><path d="M175.94,29.59V85.12c0,6.51-10.12,6.52-10.12,0V29.59C165.82,23.08,175.94,23.07,175.94,29.59Z" fill="#fbb03b"></path><path d="M188.53,107.5,201,114.07c1.77.93.2,3.62-1.57,2.69L187,110.19C185.18,109.25,186.75,106.57,188.53,107.5Z" fill="#f2f2f2"></path><path d="M166.59,105.86q17.46,9.36,35.27,18c1.8.88.22,3.56-1.57,2.69q-17.81-8.67-35.27-18C163.26,107.6,164.83,104.91,166.59,105.86Z" fill="#f2f2f2"></path><path d="M197.63,79.92s-2.67-8.43-4-8.43.77,3.27,0,3.1-5.94-6.45-7.4-6.19-2.41,4-2,6.28,9.21,8.86,9.21,8.86S198.41,83.54,197.63,79.92Z" fill="#f9d7b4"></path><path d="M215.83,93.53c-3-.13-12.42-8.79-17.94-14.16-3,1.13-5.91,3-6.61,6,5.83,6,17.14,18.23,22.23,19.66,6.79,1.9,20.82-4,20.82-4V86.27S220.25,93.72,215.83,93.53Z" fill="#ccc"></path><path d="M237.14,239.26c3.35-2.43,2.67-5.34,2.67-5.34l11.15.93c.17,4.33.09,8.65.19,13l-4-.34L246,245.77c-3.43,0-6.24,2.42-10.26,3.07s-8.31-2.59-8-4.93S233.8,241.68,237.14,239.26Z" fill="#a04e2a"></path><path d="M230.66,116.89a2.27,2.27,0,0,1-1.63-1.6c-.46-1.4-1-4.18-2.3-4.3s-5.23-.43-6.42.43a5.66,5.66,0,0,0-2.2,3.41c-.1,1,1.87,1.8,1.87,1.8s1.84,3,7.75,6" fill="#f9d7b4"></path><path d="M249.71,243.09s-6.13,6.33-8.29,7.84-3.95,1.51-3.39,3.68,5,2.65,8,2.17,9.31-4.94,10.56-5.84v1.51l4.54-1.51s1-8.48-1.36-10" fill="#a04e2a"></path><path d="M250,148.16l-17.32-3.67c-.58-2-1.4,41.31-.17,55.53.49,5.62,3,29.41,4,37,4.43.42,10.8.57,13.23-.11C250.46,215.25,250,148.16,250,148.16Z" fill="#252726"></path><path d="M240.16,149.07l19.22-4.35c2.4-.25,2.43,54.54,2.29,57.26,0,.37,0,.73,0,1.1a.46.46,0,0,0,.08.3c.45,18,.88,36.51-.41,37.87a10.05,10.05,0,0,1-11.58,1.84S243,174.75,241.78,168A124.6,124.6,0,0,1,240.16,149.07Z" fill="#252726"></path><path d="M250.08,89.77s.53.26,1.37.75c2.7,1.58,8.52,5.51,9.5,10.5,1.27,6.53-3.09,46.28-3.09,46.28s-18,4.73-25.6-4.14c0,0-3.55-35.34-2.18-43.82s4.51-13.74,9.26-13.42" fill="#f4f4f4"></path><path d="M241.13,127.86c6.64.18,14.5-5.59,20.26-8.75-.28,10.55-.88,23-1.14,28.28-5.64,3.08-13.89,5-20.23,4.18a.53.53,0,0,0-.55.24,31.3,31.3,0,0,1-8.17-4.28c0-4.17,0-13.95-.48-20.8A52.27,52.27,0,0,0,241.13,127.86Z" fill="#252726"></path><path d="M250.76,83.88l-.53,5.74s-2.4,3.9-7.79,2l.15-5.82" fill="#efc095"></path><path d="M230.13,97c.77-3.71,1.57-9.53,4.2-10.71,1.8-.8,5.58-.41,5.58-.41s-4.34,8.49-4.36,12.88,1.75,16.78,1.75,16.78,5.35-10.86,8.33-14.9a63.62,63.62,0,0,1,8.26-8.54s4.57,2.93,5.46,4.26c-4.89,3.65-8.81,7.43-10.5,13.63-1.14,4.17-1.66,8.51-2.67,12.72a50.24,50.24,0,0,0-1,4.92c-2.59-.88-14.32-4.92-14.64-5.87S229.36,100.69,230.13,97Z" fill="#252726"></path><path d="M237.47,66.52a5.71,5.71,0,0,1,5-.91,3.93,3.93,0,0,1,.48-.06c4.58-.13,9.8.78,11.76,5.52s-.92,9.61-4.1,12.89c-2.55,2.62-6.14-.08-6-3a5.12,5.12,0,0,1-3.09-4.4,5.74,5.74,0,0,1-4-.8,5.43,5.43,0,0,1-2.21-3A6,6,0,0,1,237.47,66.52Z" fill="#252726"></path><path d="M237.9,73.11s.38,5.57.25,7.74,1.4,6.94,3.61,8.35,8.3-4.51,9-5.32,1.63-4.84.13-5.1-2.78,3.06-2.78,3.06-1.91-1.6-1.56-3.7.51-4.49-1.67-4.85S240.31,75.65,237.9,73.11Z" fill="#f9d7b4"></path><path d="M241.75,92.56l1.59,4.4-2.19,1.65,1.51,5.09L237,117.57l-.87-16.25s3-2.83,3-3-1-2.62-1-2.62Z" fill="#c1272d"></path><path d="M246.16,124.13s3.95-26.45,10.49-28,7.4,5.33,5.91,16.43-5.59,24-12.78,23.82-22.48-11.62-22.48-11.62.19-7.46,2.95-7.9S246.16,124.13,246.16,124.13Z" fill="#ccc"></path><path d="M245.95,112.48l-2.9-1.47c-.63-.32-1.18.63-.55.95l2.9,1.47C246,113.74,246.58,112.8,245.95,112.48Z" fill="#f4f4f4"></path></g></g></svg>