<svg xmlns="http://www.w3.org/2000/svg" viewBox="0 0 400 300" width="406" height="306" class="illustration styles_illustrationTablet__1DWOa"><g id="_344_salesman_outline" data-name="#344_salesman_outline"><path d="M197.43,61.59c-22.34,0-40.52,20.79-40.52,46.35,0,7.91-4.4,15.26-8.29,21.75s-7.12,11.87-4.92,15.76c3.42,6,20.49,8.84,53.73,8.84s50.31-2.81,53.73-8.84c2.2-3.89-1.1-9.39-4.92-15.76S238,115.85,238,107.94C238,82.38,219.77,61.59,197.43,61.59Z" fill="#725858"></path><rect x="255.9" y="155.29" width="43.54" height="30.69" fill="#70cc40"></rect><path d="M299.43,186.88H255.9a.9.9,0,0,1-.9-.9V155.29a.9.9,0,0,1,.9-.9h43.53a.9.9,0,0,1,.9.9V186A.9.9,0,0,1,299.43,186.88Zm-42.63-1.8h41.73V156.19H256.8Z" fill="#093f68"></path><path d="M167.51,164.23h0a0,0,0,0,1,0,0v49a0,0,0,0,1,0,0h-14.2a0,0,0,0,1,0,0V178.43A14.2,14.2,0,0,1,167.51,164.23Z" fill="#fff"></path><path d="M167.51,214.16h-14.2a.9.9,0,0,1-.9-.9V178.43a15.12,15.12,0,0,1,15.1-15.1.9.9,0,0,1,.9.9v49A.9.9,0,0,1,167.51,214.16Zm-13.3-1.8h12.4v-47.2a13.31,13.31,0,0,0-12.4,13.27Z" fill="#093f68"></path><path d="M227.35,164.23h2.73a11.47,11.47,0,0,1,11.47,11.47v37.56a0,0,0,0,1,0,0h-14.2a0,0,0,0,1,0,0v-49A0,0,0,0,1,227.35,164.23Z" fill="#fff"></path><path d="M241.55,214.16h-14.2a.9.9,0,0,1-.9-.9v-49a.9.9,0,0,1,.9-.9h2.73a12.39,12.39,0,0,1,12.37,12.37v37.56A.9.9,0,0,1,241.55,214.16Zm-13.3-1.8h12.41V175.7a10.59,10.59,0,0,0-10.58-10.57h-1.83Z" fill="#093f68"></path><path d="M227.35,213.26l34.74-19.85s-6.39-5.36-4.42-7,11.49,3.33,11.49,3.33a82.35,82.35,0,0,1,11.51-3.8l10.95,0c-5.41,6.13-16.58,12-16.58,12s-21.53,24.38-32.53,31c-13.46,8.07-15-7.47-15.16-15.72Z" fill="#ffc9b0"></path><path d="M235.87,232.23a7,7,0,0,1-3.45-.87c-3.89-2.16-5.93-8.25-6.07-18.09a1,1,0,0,1,.5-.88l33.53-19.16c-1.57-1.45-4.09-4.08-4.08-6a2,2,0,0,1,.73-1.6c2.15-1.78,8.93,1.34,12.17,3A84,84,0,0,1,280.43,185a1.34,1.34,0,0,1,.24,0l11,0a1,1,0,0,1,.74,1.66c-5.17,5.86-15.25,11.38-16.7,12.16-1.93,2.17-22,24.62-32.65,31A14.27,14.27,0,0,1,235.87,232.23Zm-7.51-18.4c.19,8.61,1.93,14.06,5,15.79,2.1,1.17,5,.66,8.6-1.5,10.75-6.44,32.08-30.53,32.3-30.78a1,1,0,0,1,.28-.22c.1-.05,9.12-4.85,14.7-10.15l-8.48,0a82.81,82.81,0,0,0-11.24,3.72,1,1,0,0,1-.86,0c-4.66-2.44-9.61-4.08-10.38-3.45-.23.61,1.69,3.17,4.42,5.46a1,1,0,0,1,.35.86,1,1,0,0,1-.5.77Z" fill="#093f68"></path><rect x="167.82" y="164.23" width="59.84" height="75.18" fill="#3ac5c9"></rect><path d="M227.66,240.41H167.82a1,1,0,0,1-1-1V164.23a1,1,0,0,1,1-1h59.84a1,1,0,0,1,1,1v75.18A1,1,0,0,1,227.66,240.41Zm-58.84-2h57.84V165.23H168.82Z" fill="#093f68"></path><path d="M170.46,179.84a19.29,19.29,0,0,0-5.72,14.21,25.06,25.06,0,0,0,5.72,15.63" fill="#3ac5c9"></path><path d="M170.46,210.68a1,1,0,0,1-.74-.33,25.9,25.9,0,0,1-6-16.3c0-9.7,5.82-14.76,6.07-15a1,1,0,1,1,1.3,1.52h0a18.46,18.46,0,0,0-5.37,13.45,24.27,24.27,0,0,0,5.46,15,1,1,0,0,1-.07,1.41A1,1,0,0,1,170.46,210.68Z" fill="#093f68"></path><path d="M224.4,179.84a19.29,19.29,0,0,1,5.72,14.21,25.06,25.06,0,0,1-5.72,15.63" fill="#3ac5c9"></path><path d="M224.4,210.68a1,1,0,0,1-.67-.26,1,1,0,0,1-.07-1.41,24.27,24.27,0,0,0,5.46-15,18.46,18.46,0,0,0-5.37-13.45,1,1,0,1,1,1.3-1.52c.25.21,6.07,5.27,6.07,15a25.84,25.84,0,0,1-6,16.3A1,1,0,0,1,224.4,210.68Z" fill="#093f68"></path><path d="M197.43,156.29c-35,0-51.56-2.95-55.47-9.85-2.78-4.91.8-10.87,4.94-17.78,3.76-6.26,8-13.36,8-20.72,0-26.66,19.08-48.35,42.52-48.35S240,81.28,240,107.94c0,7.36,4.25,14.46,8,20.72,4.14,6.91,7.72,12.87,4.94,17.78C249,153.34,232.4,156.29,197.43,156.29Zm0-94.7c-22.34,0-40.52,20.79-40.52,46.35,0,7.91-4.4,15.26-8.29,21.75s-7.12,11.87-4.92,15.76c3.42,6,20.49,8.84,53.73,8.84s50.31-2.81,53.73-8.84c2.2-3.89-1.1-9.39-4.92-15.76S238,115.85,238,107.94C238,82.38,219.77,61.59,197.43,61.59Z" fill="#093f68"></path><polygon points="221.72 164.23 203.93 196.93 197.59 208.59 191.49 197.24 173.76 164.23 221.72 164.23" fill="#fff"></polygon><path d="M197.59,209.49h0a.89.89,0,0,1-.79-.47L173,164.66a.89.89,0,0,1,0-.89.89.89,0,0,1,.77-.44h48a.89.89,0,0,1,.77.44.91.91,0,0,1,0,.89L198.38,209A.9.9,0,0,1,197.59,209.49Zm-22.33-44.36,22.33,41.57,22.62-41.57Z" fill="#093f68"></path><polygon points="200.58 178.12 194.89 178.12 189.93 167.08 205.54 167.08 200.58 178.12" fill="#f56132"></polygon><path d="M200.58,179.11h-5.69a1,1,0,0,1-.91-.59l-5-11a1,1,0,0,1,.07-1,1,1,0,0,1,.84-.46h15.61a1,1,0,0,1,.84.46,1,1,0,0,1,.07,1l-4.95,11A1,1,0,0,1,200.58,179.11Zm-5-2h4.4l4.06-9H191.48Z" fill="#093f68"></path><polygon points="203.93 196.93 197.59 208.59 191.49 197.24 194.89 178.11 200.58 178.11 203.93 196.93" fill="#f56132"></polygon><path d="M197.59,209.59h0a1,1,0,0,1-.88-.52l-6.1-11.35a1,1,0,0,1-.11-.65l3.4-19.13a1,1,0,0,1,1-.83h5.69a1,1,0,0,1,1,.83l3.35,18.82a1,1,0,0,1-.1.65l-6.34,11.66A1,1,0,0,1,197.59,209.59Zm-5.06-12.52,5.06,9.42,5.29-9.73-3.14-17.65h-4Z" fill="#093f68"></path><polygon points="178.01 164.23 188.19 176.71 197.47 164.23 178.01 164.23" fill="#fff"></polygon><path d="M188.19,177.71a1,1,0,0,1-.77-.37l-10.18-12.48a1,1,0,0,1,.77-1.63h19.46a1,1,0,0,1,.9.55,1,1,0,0,1-.09,1.05L189,177.31a1,1,0,0,1-.78.4Zm-8.07-12.48,8,9.85,7.32-9.85Z" fill="#093f68"></path><polygon points="198 164.23 208.19 176.71 217.46 164.23 198 164.23" fill="#fff"></polygon><path d="M208.19,177.71a1,1,0,0,1-.78-.37l-10.18-12.48a1,1,0,0,1-.13-1.06,1,1,0,0,1,.9-.57h19.46a1,1,0,0,1,.9.55,1,1,0,0,1-.09,1.05L209,177.31a1,1,0,0,1-.78.4Zm-8.08-12.48,8,9.85,7.32-9.85Z" fill="#093f68"></path><path d="M191.81,157.74h11.85a0,0,0,0,1,0,0v6.82a5,5,0,0,1-5,5h-1.79a5,5,0,0,1-5-5v-6.82A0,0,0,0,1,191.81,157.74Z" fill="#ffc9b0"></path><path d="M198.63,170.59h-1.79a6,6,0,0,1-6-6v-6.82a1,1,0,0,1,1-1h11.85a1,1,0,0,1,1,1v6.82A6,6,0,0,1,198.63,170.59Zm-5.82-11.85v5.82a4,4,0,0,0,4,4h1.79a4,4,0,0,0,4-4v-5.82Z" fill="#093f68"></path><ellipse cx="163.87" cy="126.96" rx="11.51" ry="9.92" fill="#ffc9b0"></ellipse><path d="M163.87,137.88c-6.9,0-12.52-4.9-12.52-10.92S157,116,163.87,116s12.51,4.9,12.51,10.93S170.77,137.88,163.87,137.88Zm0-19.85c-5.8,0-10.52,4-10.52,8.93s4.72,8.92,10.52,8.92,10.51-4,10.51-8.92S169.67,118,163.87,118Z" fill="#093f68"></path><ellipse cx="230.99" cy="126.96" rx="11.51" ry="9.92" fill="#ffc9b0"></ellipse><path d="M231,137.88c-6.9,0-12.51-4.9-12.51-10.92S224.09,116,231,116s12.52,4.9,12.52,10.93S237.89,137.88,231,137.88ZM231,118c-5.79,0-10.51,4-10.51,8.93s4.72,8.92,10.51,8.92,10.52-4,10.52-8.92S236.79,118,231,118Z" fill="#093f68"></path><path d="M218.86,97.55a33.12,33.12,0,0,1-12.31-2.82c-6-2.82-11.2-7.2-16-11.79-3.18,8.73-12,13.85-20.19,18.25-1.75,1-4,1.86-5.58.62-1.69,7.3-1.74,15.3-1.74,22.76a34.73,34.73,0,0,0,69.45,0v-27C227.94,97.55,223.36,97.82,218.86,97.55Z" fill="#ffc9b0"></path><path d="M197.74,160.29A35.76,35.76,0,0,1,162,124.57c0-6.84,0-15.35,1.77-23a1,1,0,0,1,1.59-.56c.86.68,2.33.44,4.48-.72,8.7-4.68,16.75-9.55,19.73-17.71a1,1,0,0,1,.71-.64,1,1,0,0,1,.92.25c4.34,4.13,9.62,8.74,15.77,11.62a31.88,31.88,0,0,0,11.94,2.72c2.91.18,5.93.12,8.86.07,1.56,0,3.13-.06,4.69-.05a1,1,0,0,1,1,1v27A35.76,35.76,0,0,1,197.74,160.29Zm-32.28-57c-1.45,7.1-1.45,14.93-1.45,21.3a33.73,33.73,0,0,0,67.45,0v-26c-1.21,0-2.43,0-3.65.05-2.95,0-6,.11-9-.07h0a33.92,33.92,0,0,1-12.67-2.91c-5.91-2.77-11-7-15.23-11-3.56,8-11.53,12.79-20.1,17.4C169.31,102.88,167.27,103.77,165.46,103.27Z" fill="#093f68"></path><circle cx="181.66" cy="119.51" r="3.22" fill="#093f68"></circle><circle cx="214.82" cy="119.51" r="3.22" fill="#093f68"></circle><path d="M197.57,131.32a19.35,19.35,0,0,1-3.13-.26,1,1,0,0,1-.81-1.15,1,1,0,0,1,1.16-.82,14.69,14.69,0,0,0,4.76,0c.21-.91-1-4.36-2.7-7.6a1,1,0,0,1,1.77-.93c1.13,2.16,3.65,7.4,2.73,9.45a1.71,1.71,0,0,1-1.17,1A10.81,10.81,0,0,1,197.57,131.32Z" fill="#093f68"></path><path d="M188.23,110.1h0l-15.34,0a1.59,1.59,0,0,1,0-3.18h0l15.33,0a1.59,1.59,0,0,1,0,3.18Z" fill="#093f68"></path><path d="M210.09,110.47a1.59,1.59,0,0,1-.08-3.18l15.31-.78A1.6,1.6,0,0,1,227,108a1.58,1.58,0,0,1-1.51,1.66l-15.31.79Z" fill="#093f68"></path><rect x="207.44" y="198" width="15.69" height="7.32" fill="#fff"></rect><path d="M223.14,206.22h-15.7a.9.9,0,0,1-.9-.89V198a.9.9,0,0,1,.9-.89h15.7a.89.89,0,0,1,.89.89v7.33A.89.89,0,0,1,223.14,206.22Zm-14.8-1.79h13.9V198.9h-13.9Z" fill="#093f68"></path><path d="M215.29,199a1,1,0,0,1-1-1v-2.62a1,1,0,0,1,2,0V198A1,1,0,0,1,215.29,199Z" fill="#093f68"></path><path d="M188.23,136.88h17.31a0,0,0,0,1,0,0V142a8.66,8.66,0,0,1-8.66,8.66h0a8.66,8.66,0,0,1-8.66-8.66v-5.17A0,0,0,0,1,188.23,136.88Z" fill="#093f68"></path><path d="M196.89,151.7a9.66,9.66,0,0,1-9.66-9.65v-5.17a1,1,0,0,1,1-1h17.31a1,1,0,0,1,1,1v5.17A9.66,9.66,0,0,1,196.89,151.7Zm-7.66-13.82v4.17a7.66,7.66,0,0,0,15.31,0v-4.17Z" fill="#093f68"></path><rect x="252.32" y="152.58" width="50.68" height="11.65" fill="#70cc40"></rect><path d="M303,165.13H252.32a.89.89,0,0,1-.89-.9V152.58a.89.89,0,0,1,.89-.9H303a.9.9,0,0,1,.9.9v11.65A.9.9,0,0,1,303,165.13Zm-49.78-1.8h48.89v-9.85H253.22Z" fill="#093f68"></path><polygon points="314.2 179.48 306.47 183.44 301.67 174.06 304.07 169.23 309.39 170.1 314.2 179.48" fill="#f56132"></polygon><path d="M306.47,184.44a1,1,0,0,1-.3-.05,1,1,0,0,1-.59-.5l-4.8-9.38a1,1,0,0,1,0-.9l2.41-4.83a1,1,0,0,1,1.06-.54l5.32.87a1,1,0,0,1,.72.54l4.81,9.38a1,1,0,0,1-.44,1.34l-7.72,4A1,1,0,0,1,306.47,184.44Zm-3.68-10.39,4.12,8,5.94-3-4.12-8-4.09-.67Z" fill="#093f68"></path><path d="M304.08,170.23a1,1,0,0,1-.92-.6,8.61,8.61,0,0,0-3.54-3.67,1,1,0,0,1,.91-1.78,10.45,10.45,0,0,1,4.46,4.65,1,1,0,0,1-.52,1.32A1.09,1.09,0,0,1,304.08,170.23Z" fill="#093f68"></path><path d="M167.82,213l-15.67-41.87s-1.6-8-5.17-10.83-18-3.06-21.18-2.07c-4,1.29-4.54,9.83-.13,12.9,3.06,2.13,10,6.77,10,6.77l10.42,41.87a11.37,11.37,0,0,0,14.24,7.48h0A11.39,11.39,0,0,0,167.82,213Z" fill="#ffc9b0"></path><path d="M157,228.8a12.4,12.4,0,0,1-11.82-8.69L134.8,178.56c-1.41-.94-7-4.72-9.7-6.56-3-2.1-3.89-6.17-3.42-9.27.41-2.76,1.84-4.78,3.82-5.41,3.34-1.07,18.18-.86,22.1,2.23,3.65,2.89,5.32,10.43,5.51,11.35l15.64,41.79a.14.14,0,0,1,0,.06A12.37,12.37,0,0,1,157,228.8Zm-25-70.06a24.74,24.74,0,0,0-5.9.49c-1.24.39-2.15,1.81-2.45,3.79-.37,2.41.29,5.73,2.59,7.33,3,2.1,9.91,6.71,10,6.76a1,1,0,0,1,.42.59l10.42,41.87a10.37,10.37,0,0,0,19.8-6.2l-15.66-41.85a.83.83,0,0,1,0-.15c0-.08-1.58-7.69-4.81-10.25C144.2,159.42,137.27,158.74,132,158.74Z" fill="#093f68"></path><path d="M138,153.65h0a3.15,3.15,0,0,1,3.15,3.15v17.8a0,0,0,0,1,0,0h-6.3a0,0,0,0,1,0,0V156.8a3.15,3.15,0,0,1,3.15-3.15Z" transform="translate(231.37 357.09) rotate(-165.78)" fill="#ffbc0e"></path><path d="M136.16,175.37a4,4,0,0,1-1-.13,4.16,4.16,0,0,1-3-5L136.5,153a1,1,0,0,1,.46-.62,1.06,1.06,0,0,1,.76-.11l6.1,1.55a1,1,0,0,1,.73,1.22l-4.37,17.25a4.17,4.17,0,0,1-4,3.13Zm2-21-4.12,16.28a2.15,2.15,0,0,0,4.17,1.06l4.12-16.29Z" fill="#093f68"></path><path d="M103.09,165.35,147,157.09a8,8,0,0,0,6.74-7l0-.59a8,8,0,0,0-5.67-7.9l-42.24-14.45Z" fill="#ffbc0e"></path><path d="M103.08,166.35a1,1,0,0,1-.66-.25,1,1,0,0,1-.33-.82l2.75-38.22a1,1,0,0,1,.44-.76,1,1,0,0,1,.88-.11l42.24,14.46a9,9,0,0,1,6.34,8.91l-.05.6a9,9,0,0,1-7.55,7.91l-43.87,8.27Zm3.66-37.85-2.56,35.63,42.59-8a7,7,0,0,0,5.93-6.1l0-.59a7,7,0,0,0-5-6.88Z" fill="#093f68"></path><rect x="98.37" y="123.97" width="6.1" height="44.11" rx="2.89" transform="translate(192.1 298.95) rotate(-175.89)" fill="#ffbc0e"></rect><path d="M100.21,169h-.29l-.31,0h0A3.91,3.91,0,0,1,96,164.85l2.75-38.23a3.9,3.9,0,0,1,4.17-3.6l.31,0a3.89,3.89,0,0,1,3.6,4.16l-2.75,38.23a3.89,3.89,0,0,1-3.87,3.61Zm-.46-2,.31,0a1.9,1.9,0,0,0,2-1.75l2.75-38.23a1.9,1.9,0,0,0-1.76-2l-.31,0a1.85,1.85,0,0,0-1.37.45,1.82,1.82,0,0,0-.65,1.3L98,165a1.88,1.88,0,0,0,1.75,2Z" fill="#093f68"></path><path d="M143,161.89c-.77-.1-9.44-.18-8.5,3.65s6.46,12.87,7.26,9.66a21.09,21.09,0,0,0,0-7.52" fill="#ffc9b0"></path><path d="M141.17,176.88h0c-2.69,0-6.94-8.39-7.6-11.1a2.89,2.89,0,0,1,.66-2.75c2.25-2.51,8.88-2.14,8.94-2.13a1,1,0,0,1-.26,2c-1-.12-5.92.06-7.19,1.49a.94.94,0,0,0-.21.93c.73,3,3.94,8.27,5.39,9.39a20.9,20.9,0,0,0-.08-6.83,1,1,0,0,1,2-.37,22.23,22.23,0,0,1,0,8A1.65,1.65,0,0,1,141.17,176.88Z" fill="#093f68"></path></g></svg>